<svg width="1437" height="761" viewBox="0 0 1437 761" fill="none" xmlns="http://www.w3.org/2000/svg">
<path opacity="0.5" fill-rule="evenodd" clip-rule="evenodd" d="M407.921 577.239C378.952 638.387 348.257 664.18 315.95 668.755C283.574 673.339 249.276 656.675 212.954 632.091C196.019 620.629 178.688 607.478 160.944 594.013L160.942 594.01C159.677 593.051 158.41 592.089 157.141 591.127C138.075 576.666 118.538 561.962 98.5484 548.74C58.581 522.305 16.7025 501.727 -27.0256 500.869L-27.055 502.369C16.2365 503.218 57.8192 523.6 97.7209 549.991C117.665 563.183 137.166 577.859 156.234 592.322C157.505 593.285 158.774 594.248 160.041 595.21L160.043 595.211C177.779 608.671 195.143 621.847 212.113 633.333C248.442 657.922 283.17 674.911 316.16 670.24C349.22 665.559 380.232 639.19 409.277 577.881C438.248 516.729 470.933 474.394 507.233 444.838C543.53 415.284 583.481 398.475 627.034 388.429C670.599 378.38 717.751 375.103 768.455 372.604C776.405 372.212 784.443 371.839 792.567 371.463C836.238 369.438 882.413 367.297 931.009 361.441C1023.41 350.304 1111.84 291.112 1184.8 221.758C1257.77 152.391 1315.36 72.7676 1346.07 20.5975L1344.78 19.8365C1314.12 71.9032 1256.62 151.412 1183.77 220.671C1110.9 289.944 1022.76 348.873 930.83 359.951C882.293 365.801 836.181 367.939 792.51 369.964C784.382 370.341 776.339 370.714 768.381 371.106C717.678 373.604 670.406 376.886 626.697 386.968C582.974 397.052 542.799 413.945 506.286 443.675C469.775 473.403 436.965 515.933 407.921 577.239ZM393.668 536.603C364.699 597.751 334.003 623.545 301.697 628.119C269.321 632.703 235.022 616.04 198.701 591.456C181.769 579.996 164.441 566.847 146.7 553.384L146.699 553.383L146.697 553.382L146.694 553.379L146.691 553.377L146.688 553.375C145.423 552.415 144.157 551.454 142.887 550.491C123.821 536.03 104.285 521.327 84.2952 508.105C44.3278 481.67 2.44936 461.091 -41.2787 460.234L-41.3082 461.733C1.98329 462.582 43.566 482.964 83.4677 509.356C103.412 522.548 122.913 537.224 141.981 551.686C143.252 552.65 144.52 553.613 145.787 554.574L145.79 554.576C163.526 568.036 180.889 581.212 197.86 592.698C234.189 617.287 268.916 634.275 301.907 629.604C334.967 624.923 365.978 598.554 395.024 537.245C423.995 476.094 456.68 433.759 492.98 404.203C529.277 374.649 569.228 357.839 612.781 347.794C656.346 337.745 703.498 334.467 754.202 331.969C762.152 331.577 770.19 331.204 778.314 330.827C821.985 328.803 868.16 326.662 916.756 320.805C1009.16 309.669 1097.59 250.476 1170.55 181.123C1243.52 111.755 1301.1 32.1322 1331.82 -20.0379L1330.52 -20.7989C1299.87 31.2677 1242.37 110.777 1169.51 180.036C1096.64 249.309 1008.5 308.237 916.577 319.316C868.04 325.165 821.928 327.304 778.257 329.328C770.129 329.705 762.086 330.078 754.128 330.47C703.425 332.969 656.153 336.25 612.443 346.332C568.721 356.417 528.546 373.31 492.033 403.04C455.522 432.767 422.712 475.298 393.668 536.603ZM379.415 495.968C350.446 557.116 319.75 582.909 287.444 587.484C255.068 592.068 220.769 575.404 184.447 550.82C167.516 539.36 150.188 526.211 132.446 512.748L132.445 512.747L132.443 512.745L132.442 512.744L132.438 512.742L132.435 512.74L130.146 511.002L128.634 509.856C109.568 495.395 90.0322 480.691 70.0422 467.469C30.0748 441.034 -11.8037 420.456 -55.5318 419.598L-55.5612 421.098C-12.2698 421.947 29.313 442.329 69.2147 468.72C89.1591 481.912 108.66 496.588 127.728 511.051C128.999 512.015 130.267 512.978 131.534 513.939L131.537 513.941L131.54 513.943L131.541 513.944L131.543 513.945L131.544 513.946C149.278 527.404 166.639 540.578 183.607 552.062C219.936 576.651 254.663 593.64 287.654 588.969C320.714 584.288 351.725 557.919 380.771 496.61C409.741 435.458 442.427 393.124 478.727 363.567C515.024 334.013 554.975 317.204 598.527 307.158C642.093 297.11 689.245 293.832 739.949 291.333C747.899 290.941 755.937 290.569 764.061 290.192C807.732 288.167 853.907 286.026 902.503 280.17C994.907 269.033 1083.34 209.841 1156.29 140.487C1229.27 71.1198 1286.85 -8.5032 1317.56 -60.6733L1316.27 -61.4343C1285.62 -9.36767 1228.12 70.1413 1155.26 139.4C1082.39 208.673 994.25 267.602 902.324 278.681C853.787 284.53 807.675 286.668 764.005 288.693L764.003 288.693C755.876 289.07 747.833 289.443 739.875 289.835C689.172 292.334 641.9 295.615 598.19 305.697C554.468 315.782 514.293 332.674 477.78 362.404C441.269 392.132 408.459 434.662 379.415 495.968ZM273.19 546.848C305.497 542.274 336.193 516.48 365.162 455.332C394.205 394.027 427.016 351.496 463.526 321.769C500.04 292.039 540.214 275.146 583.937 265.061C627.646 254.979 674.918 251.698 725.621 249.199C733.543 248.809 741.549 248.438 749.639 248.063L749.704 248.06L749.75 248.057C793.421 246.033 839.534 243.895 888.07 238.045C979.997 226.966 1068.14 168.038 1141.01 98.7648C1213.86 29.5058 1271.36 -50.0031 1302.02 -102.07L1303.31 -101.309C1272.6 -49.1387 1215.01 30.4843 1142.04 99.8519C1069.08 169.206 980.654 228.398 888.25 239.534C839.653 245.391 793.479 247.532 749.808 249.557C741.683 249.933 733.646 250.306 725.695 250.698C674.991 253.196 627.84 256.474 584.274 266.523C540.722 276.569 500.771 293.378 464.473 322.932C428.173 352.488 395.488 394.823 366.517 455.975C337.472 517.283 306.46 543.653 273.401 548.333C240.41 553.004 205.683 536.016 169.353 511.427C152.383 499.941 135.02 486.765 117.283 473.305L117.281 473.303L115.946 472.29L113.474 470.415C94.4062 455.953 74.9057 441.277 54.9613 428.085C15.0596 401.693 -26.5231 381.312 -69.8146 380.462L-69.7852 378.963C-26.057 379.82 15.8214 400.399 55.7888 426.834C75.7789 440.056 95.315 454.759 114.381 469.22C115.65 470.183 116.917 471.144 118.182 472.104L118.185 472.107L118.188 472.109L118.19 472.11C135.932 485.574 153.261 498.724 170.194 510.185C206.516 534.769 240.815 551.432 273.19 546.848ZM350.908 414.697C321.939 475.845 291.244 501.639 258.937 506.213C226.561 510.797 192.263 494.133 155.941 469.549C139.007 458.088 121.677 444.937 103.934 431.473L103.931 431.471L103.928 431.469C102.664 430.509 101.397 429.547 100.127 428.585C81.0616 414.124 61.5254 399.42 41.5354 386.198C1.56798 359.763 -40.3105 339.185 -84.0386 338.327L-84.068 339.827C-40.7766 340.676 0.806162 361.058 40.7079 387.45C60.6523 400.641 80.1527 415.317 99.221 429.78C100.492 430.744 101.761 431.707 103.028 432.668L103.03 432.67L103.033 432.672L103.037 432.675C120.77 446.132 138.132 459.307 155.1 470.792C191.429 495.38 226.156 512.369 259.147 507.698C292.207 503.017 323.218 476.648 352.264 415.339C381.235 354.187 413.92 311.853 450.22 282.296C486.517 252.742 526.468 235.933 570.021 225.887C613.586 215.839 660.738 212.561 711.442 210.062C719.38 209.671 727.405 209.299 735.517 208.923L735.545 208.922L735.554 208.921C779.225 206.896 825.4 204.756 873.996 198.899C966.4 187.763 1054.83 128.57 1127.79 59.2165C1200.76 -10.1511 1258.34 -89.7741 1289.06 -141.944L1287.76 -142.705C1257.11 -90.6386 1199.61 -11.1296 1126.75 58.1293C1053.88 127.402 965.743 186.331 873.817 197.41C825.28 203.259 779.168 205.397 735.497 207.422C727.369 207.799 719.326 208.172 711.368 208.564C660.665 211.063 613.393 214.344 569.684 224.426C525.961 234.511 485.786 251.404 449.273 281.133C412.762 310.861 379.952 353.392 350.908 414.697ZM244.684 465.577C276.99 461.003 307.686 435.209 336.655 374.061C365.699 312.756 398.509 270.225 435.02 240.498C471.533 210.768 511.708 193.875 555.43 183.79C599.14 173.708 646.412 170.427 697.115 167.929C705.073 167.536 713.116 167.163 721.244 166.787C764.915 164.762 811.027 162.624 859.564 156.774C951.49 145.695 1039.63 86.7667 1112.5 17.4938C1185.36 -51.7651 1242.86 -131.274 1273.51 -183.341L1274.8 -182.58C1244.09 -130.41 1186.51 -50.7866 1113.53 18.581C1040.58 87.9347 952.147 147.127 859.743 158.263C811.147 164.12 764.972 166.261 721.301 168.286C713.177 168.662 705.139 169.035 697.189 169.427C646.485 171.925 599.333 175.203 555.768 185.252C512.215 195.298 472.264 212.107 435.967 241.661C399.667 271.217 366.982 313.552 338.011 374.704C308.965 436.013 277.954 462.382 244.894 467.062C211.903 471.734 177.176 454.745 140.847 430.156C123.877 418.67 106.514 405.494 88.7783 392.036L88.7756 392.033L88.7745 392.032C87.5075 391.071 86.2387 390.108 84.9679 389.144C65.8996 374.682 46.3992 360.006 26.4548 346.814C-13.4469 320.422 -55.0297 300.041 -98.3211 299.191L-98.2917 297.692C-54.5636 298.549 -12.6851 319.128 27.2823 345.563C47.2723 358.785 66.8085 373.489 85.8744 387.949C87.1436 388.912 88.4105 389.873 89.6754 390.833L89.6781 390.835L89.6807 390.837C107.424 404.302 124.754 417.453 141.688 428.914C178.009 453.498 212.308 470.161 244.684 465.577Z" fill="url(#paint0_linear)"/>
<defs>
<linearGradient id="paint0_linear" x1="1249.24" y1="329.51" x2="142.099" y2="541.833" gradientUnits="userSpaceOnUse">
<stop stop-color="#846CCA"/>
<stop offset="0.453125" stop-color="#215D71"/>
<stop offset="1" stop-color="#81782C"/>
</linearGradient>
</defs>
</svg>
